<svg width="41" height="41" viewBox="0 0 41 41" fill="none" xmlns="http://www.w3.org/2000/svg">
<path d="M27.6945 21.5032C27.6827 19.3308 28.6653 17.6912 30.6542 16.4836C29.5413 14.8913 27.8602 14.0153 25.6405 13.8436C23.5391 13.6779 21.2424 15.0689 20.4019 15.0689C19.514 15.0689 17.4778 13.9028 15.8795 13.9028C12.5766 13.9561 9.06641 16.5369 9.06641 21.7873C9.06641 23.3382 9.35053 24.9404 9.91879 26.5938C10.6765 28.7662 13.4112 34.0936 16.2643 34.0048C17.756 33.9693 18.8096 32.9452 20.7511 32.9452C22.6335 32.9452 23.6102 34.0048 25.2735 34.0048C28.1503 33.9634 30.6246 29.1214 31.3467 26.9431C27.4873 25.1258 27.6945 21.6157 27.6945 21.5032ZM24.3442 11.7837C25.9601 9.86583 25.8122 8.11964 25.7648 7.49219C24.3382 7.57506 22.6868 8.46296 21.7456 9.55803C20.7097 10.7301 20.1 12.1803 20.2302 13.814C21.7752 13.9324 23.184 13.1392 24.3442 11.7837Z" fill="black"/>
</svg>
