<svg width="20" height="20" viewBox="0 0 20 20" fill="none" xmlns="http://www.w3.org/2000/svg">
    <path fill-rule="evenodd" clip-rule="evenodd" d="M8.33623 12.3038C8.82489 12.635 9.42045 12.8353 10.0542 12.8353C11.734 12.8353 13.1007 11.4563 13.1007 9.76144C13.1007 9.12201 12.9022 8.52109 12.5739 8.02804L11.7416 8.86777C11.879 9.12971 11.9554 9.43787 11.9554 9.76144C11.9554 10.8169 11.1002 11.6797 10.0542 11.6797C9.7335 11.6797 9.42809 11.6027 9.16849 11.464L8.33623 12.3038ZM15.0864 5.49374C16.1936 6.51067 17.1327 7.88198 17.8352 9.53063C17.8962 9.67701 17.8962 9.8465 17.8352 9.98517C16.2012 13.8218 13.2921 16.1176 10.0547 16.1176H10.0471C8.57346 16.1176 7.16091 15.6322 5.91634 14.7462L4.43508 16.2408C4.32055 16.3564 4.17548 16.4103 4.03041 16.4103C3.88533 16.4103 3.73263 16.3564 3.62573 16.2408C3.43485 16.0482 3.40431 15.7401 3.55701 15.5166L3.57992 15.4858L14.8726 4.09161C14.8879 4.0762 14.9032 4.06079 14.9108 4.04538L14.9108 4.04538C14.9261 4.02997 14.9414 4.01457 14.949 3.99916L15.6667 3.27498C15.8958 3.05157 16.2546 3.05157 16.4761 3.27498C16.7051 3.4984 16.7051 3.86819 16.4761 4.09161L15.0864 5.49374ZM7.00258 9.76429C7.00258 9.9646 7.02548 10.1649 7.05603 10.3498L4.23094 13.2003C3.4674 12.3066 2.80312 11.2281 2.27628 9.98771C2.2152 9.84904 2.2152 9.67955 2.27628 9.53317C3.91025 5.69658 6.81933 3.40849 10.0491 3.40849H10.0567C11.1486 3.40849 12.2099 3.67042 13.1872 4.16348L10.637 6.73662C10.4538 6.7058 10.2552 6.68269 10.0567 6.68269C8.36931 6.68269 7.00258 8.06171 7.00258 9.76429Z" fill="#4D5DFA"/>
</svg>
