<svg width="36" height="36" viewBox="0 0 36 36" fill="none" xmlns="http://www.w3.org/2000/svg">
<path d="M18.0816 10.5193C20.2944 10.5193 21.787 11.4751 22.638 12.2738L25.9637 9.0267C23.9212 7.12818 21.2633 5.96289 18.0816 5.96289C13.4728 5.96289 9.49248 8.60772 7.55469 12.4571L11.3648 15.4162C12.3206 12.575 14.9654 10.5193 18.0816 10.5193Z" fill="#EA4335"/>
<path d="M29.3985 18.0088C29.3985 17.0399 29.3199 16.3328 29.1497 15.5996H18.0859V19.9727H24.5802C24.4492 21.0595 23.7422 22.6961 22.171 23.7959L25.8895 26.6765C28.1153 24.6208 29.3985 21.5963 29.3985 18.0088Z" fill="#4285F4"/>
<path d="M11.3809 20.0773C11.1322 19.3441 10.9881 18.5585 10.9881 17.7467C10.9881 16.9349 11.1322 16.1493 11.3678 15.4161L7.55773 12.457C6.75904 14.0544 6.30078 15.8482 6.30078 17.7467C6.30078 19.6452 6.75904 21.439 7.55773 23.0363L11.3809 20.0773Z" fill="#FBBC05"/>
<path d="M18.0841 29.5314C21.2658 29.5314 23.9368 28.484 25.8877 26.6771L22.1692 23.7966C21.1741 24.4905 19.8386 24.975 18.0841 24.975C14.968 24.975 12.3231 22.9193 11.3804 20.0781L7.57031 23.0372C9.50811 26.8866 13.4753 29.5314 18.0841 29.5314Z" fill="#34A853"/>
</svg>
