<svg width="15" height="17" viewBox="0 0 15 17" fill="none" xmlns="http://www.w3.org/2000/svg">
<path fill-rule="evenodd" clip-rule="evenodd" d="M11.9614 5.15609V6.35596C13.3092 6.77666 14.2912 7.99675 14.2912 9.45402V13.3173C14.2912 15.1213 12.7955 16.5841 10.9515 16.5841H4.32871C2.48396 16.5841 0.988281 15.1213 0.988281 13.3173V9.45402C0.988281 7.99675 1.97109 6.77666 3.31808 6.35596V5.15609C3.32603 2.82322 5.25825 0.933594 7.6278 0.933594C10.0292 0.933594 11.9614 2.82322 11.9614 5.15609ZM7.64225 2.29402C9.25641 2.29402 10.5684 3.5771 10.5684 5.15567V6.1868H4.70814V5.14012C4.71609 3.56932 6.02809 2.29402 7.64225 2.29402ZM8.33503 12.2445C8.33503 12.6255 8.02492 12.9288 7.63529 12.9288C7.25362 12.9288 6.94351 12.6255 6.94351 12.2445V10.5182C6.94351 10.1449 7.25362 9.84162 7.63529 9.84162C8.02492 9.84162 8.33503 10.1449 8.33503 10.5182V12.2445Z" fill="black" fill-opacity="0.7"/>
</svg>
