<svg width="15" height="17" viewBox="0 0 15 17" fill="none" xmlns="http://www.w3.org/2000/svg">
<path fill-rule="evenodd" clip-rule="evenodd" d="M11.8442 5.15609V6.35596C13.192 6.77666 14.174 7.99675 14.174 9.45402V13.3173C14.174 15.1213 12.6783 16.5841 10.8343 16.5841H4.21153C2.36677 16.5841 0.871094 15.1213 0.871094 13.3173V9.45402C0.871094 7.99675 1.8539 6.77666 3.20089 6.35596V5.15609C3.20884 2.82322 5.14106 0.933594 7.51061 0.933594C9.91197 0.933594 11.8442 2.82322 11.8442 5.15609ZM7.52506 2.29402C9.13922 2.29402 10.4512 3.5771 10.4512 5.15567V6.1868H4.59095V5.14012C4.59891 3.56932 5.91091 2.29402 7.52506 2.29402ZM8.21784 12.2445C8.21784 12.6255 7.90773 12.9288 7.51811 12.9288C7.13643 12.9288 6.82632 12.6255 6.82632 12.2445V10.5182C6.82632 10.1449 7.13643 9.84162 7.51811 9.84162C7.90773 9.84162 8.21784 10.1449 8.21784 10.5182V12.2445Z" fill="#4D5DFA"/>
</svg>
