<svg width="17" height="15" viewBox="0 0 17 15" fill="none" xmlns="http://www.w3.org/2000/svg">
<path fill-rule="evenodd" clip-rule="evenodd" d="M12.2409 0.652344C13.2903 0.652344 14.2997 1.06708 15.0423 1.81126C15.7857 2.55387 16.2012 3.5555 16.2012 4.60408V10.786C16.2012 12.9693 14.4249 14.7378 12.2409 14.7378H4.51035C2.32633 14.7378 0.550781 12.9693 0.550781 10.786V4.60408C0.550781 2.42085 2.3185 0.652344 4.51035 0.652344H12.2409ZM13.4862 5.77003L13.5488 5.70743C13.7358 5.4805 13.7358 5.15184 13.5402 4.92491C13.4314 4.80831 13.2819 4.7371 13.1262 4.72145C12.9619 4.71284 12.8054 4.7684 12.6872 4.87796L9.15883 7.69504C8.70496 8.07143 8.05469 8.07143 7.59378 7.69504L4.07243 4.87796C3.82906 4.69798 3.49258 4.72145 3.2899 4.93273C3.07862 5.14401 3.05515 5.4805 3.23434 5.71526L3.33686 5.81698L6.89733 8.59494C7.33555 8.93925 7.86688 9.12706 8.42325 9.12706C8.97806 9.12706 9.51879 8.93925 9.95622 8.59494L13.4862 5.77003Z" fill="black" fill-opacity="0.7"/>
</svg>
